<svg xmlns="http://www.w3.org/2000/svg" width="25.084" height="16.35" viewBox="0 0 25.084 16.35"><defs><style>.a{fill:#8395a7;}</style></defs><path class="a" d="M951.25,415.713a13.79,13.79,0,0,0-2.76-2.532,12.828,12.828,0,0,0-15.268,0,13.793,13.793,0,0,0-2.76,2.532.7.7,0,0,0,0,.866,13.163,13.163,0,0,0,2.148,2.075l-.994,1.929a.711.711,0,0,0,.307.976.754.754,0,0,0,1-.3l.016-.033.883-1.715a14.015,14.015,0,0,0,2.344,1.2l-.879,1.707a.712.712,0,0,0,.332.968.753.753,0,0,0,1-.323h0l.966-1.876a12.522,12.522,0,0,0,2.526.418v1.681a.743.743,0,0,0,1.485,0v-1.681a12.522,12.522,0,0,0,2.526-.418l.966,1.876a.752.752,0,0,0,1,.323.712.712,0,0,0,.333-.968h0l-.879-1.707a14,14,0,0,0,2.343-1.2l.883,1.715a.753.753,0,0,0,1,.3.711.711,0,0,0,.324-.943l-.994-1.93a13.16,13.16,0,0,0,2.148-2.075A.706.706,0,0,0,951.25,415.713Zm-3.669,2.258a11.307,11.307,0,0,1-13.442,0,13.568,13.568,0,0,1-2.107-1.825,13.522,13.522,0,0,1,2.107-1.824,11.3,11.3,0,0,1,13.442,0,13.593,13.593,0,0,1,2.107,1.824,13.534,13.534,0,0,1-2.111,1.823Z" transform="translate(-930.312 -410.662)"/></svg>