<svg xmlns="http://www.w3.org/2000/svg" width="25.084" height="16.35" viewBox="0 0 25.084 16.35"><defs><style>.a{fill:#8395a7;}</style></defs><g transform="translate(-902.231 -407.694)"><path class="a" d="M902.405,417.858a16.6,16.6,0,0,0,3.284,3.1,14.916,14.916,0,0,0,18.165,0,16.6,16.6,0,0,0,3.284-3.1.882.882,0,0,0,0-1.06,15.877,15.877,0,0,0-2.556-2.542l1.182-2.363a.883.883,0,1,0-1.56-.829l-.019.039-1.05,2.1a16.574,16.574,0,0,0-2.789-1.471l1.046-2.09a.884.884,0,0,0-1.581-.791h0l-1.149,2.3a14.508,14.508,0,0,0-3.005-.511v-2.06a.883.883,0,1,0-1.767,0v2.06a14.509,14.509,0,0,0-3.005.511l-1.149-2.3a.884.884,0,0,0-1.581.791h0l1.046,2.09a16.565,16.565,0,0,0-2.788,1.471l-1.05-2.1a.884.884,0,0,0-1.58.79l1.182,2.365a15.831,15.831,0,0,0-2.556,2.541A.883.883,0,0,0,902.405,417.858Zm4.365-2.765a13.14,13.14,0,0,1,15.992,0,16.226,16.226,0,0,1,2.507,2.234,16.285,16.285,0,0,1-2.507,2.235,13.144,13.144,0,0,1-15.992,0,16.377,16.377,0,0,1-2.507-2.235,16.3,16.3,0,0,1,2.512-2.233Z"/><path class="a" d="M914.018,412.386a4.22,4.22,0,0,1,4.231,4.208v.023a4.269,4.269,0,0,1-4.231,4.232,4.219,4.219,0,0,1-4.232-4.208v-.024a4.172,4.172,0,0,1,4.112-4.232Zm0,7.079a2.846,2.846,0,1,0-2.847-2.847,2.891,2.891,0,0,0,2.847,2.847Z" transform="translate(0.7 0.7)"/></g></svg>