<svg xmlns="http://www.w3.org/2000/svg" width="110.847" height="26.443" viewBox="0 0 110.847 26.443"><defs><style>.a{fill:#fff;}.b{fill:#f9b76b;}</style></defs><path class="a" d="M70.535,26.346V12c0-5.757-4.586-12-11.319-12S47.8,6.147,47.8,11.709V26.346h4.781V11.807c0-3.318,2.927-7.221,6.635-7.221,3.9,0,6.538,3.9,6.538,7.513V26.346Z" transform="translate(-1.158)"/><path class="a" d="M86.89,4.586a8.32,8.32,0,0,1,8,6.83H78.986A8.139,8.139,0,0,1,86.89,4.586Zm6.538,13.758a8.082,8.082,0,0,1-6.538,3.513,8.23,8.23,0,0,1-7.709-5.952H98.892a23.988,23.988,0,0,0,.2-2.732C99.087,5.855,93.525,0,86.792,0,79.962,0,74.4,5.855,74.4,13.173c.1,7.318,5.659,13.173,12.49,13.173a12.4,12.4,0,0,0,10.733-6.635Z" transform="translate(-1.803)"/><path class="a" d="M31.392,21.86a8.319,8.319,0,0,1-8.1-8.587,8.319,8.319,0,0,1,8.1-8.587,8.381,8.381,0,0,1,8.1,8.587A8.319,8.319,0,0,1,31.392,21.86Zm8.1-18.54h0A12.052,12.052,0,0,0,31.392.1C24.562.1,19,5.955,19,13.273c0,7.221,5.562,13.075,12.392,13.075a12.052,12.052,0,0,0,8.1-3.22v3.22h4.2V13.175A13.315,13.315,0,0,0,39.491,3.32Z" transform="translate(-0.46 -0.002)"/><path class="a" d="M4.2.1H0V26.348H4.2Z" transform="translate(0 -0.002)"/><path class="b" d="M103.83,0l9.465,13.173L103.83,26.346a3,3,0,0,1-2.244-4.781l6.05-8.392-6.05-8.392A3.148,3.148,0,0,1,101,3.025,2.938,2.938,0,0,1,103.83,0Z" transform="translate(-2.447)"/><path class="a" d="M14.765,0,5.3,13.173l9.465,13.27a3,3,0,0,0,2.244-4.781l-6.05-8.392,6.05-8.392a3.148,3.148,0,0,0,.585-1.756A2.965,2.965,0,0,0,14.765,0Z" transform="translate(-0.128)"/></svg>